<?xml version="1.0" encoding="UTF-8" standalone="no"?>
<!DOCTYPE svg PUBLIC "-//W3C//DTD SVG 1.1//EN" "http://www.w3.org/Graphics/SVG/1.1/DTD/svg11.dtd">
<svg version="1.1" xmlns="http://www.w3.org/2000/svg" xmlns:xlink="http://www.w3.org/1999/xlink" preserveAspectRatio="xMidYMid meet" viewBox="0 0 200 140" width="200" height="140"><defs><path d="M0 0L200 0L200 140L0 140L0 0Z" id="f5RAwHMKx"></path><path d="M25.83 15C61.31 47.29 83.49 67.47 92.36 75.54C96.69 79.49 103.31 79.49 107.64 75.54C116.51 67.47 138.68 47.29 174.16 15L25.83 15Z" id="c3N0af6rlx"></path><path d="M25.83 125L76.6 78.78C82.63 84.25 86.39 87.66 87.9 89.03C94.77 95.25 105.23 95.26 112.11 89.03C113.61 87.67 117.38 84.26 123.4 78.81L174.16 125L25.83 125Z" id="agH6zy7FX"></path><path d="M15 117L15 23L66.88 70L15 117Z" id="bzT3Fg7Ld"></path><path d="M185 117L185 23L133.12 70L185 117Z" id="bIApEGFOG"></path></defs><g><g><g><g><filter id="shadow9089247" x="-27" y="-27" width="255" height="195" filterUnits="userSpaceOnUse" primitiveUnits="userSpaceOnUse"><feFlood></feFlood><feComposite in2="SourceAlpha" operator="out"></feComposite><feGaussianBlur stdDeviation="3.16"></feGaussianBlur><feOffset dx="1" dy="1" result="afterOffset"></feOffset><feFlood flood-color="#000000" flood-opacity="0.5"></feFlood><feComposite in2="afterOffset" operator="in"></feComposite><feMorphology operator="dilate" radius="1"></feMorphology><feComposite in2="SourceAlpha" operator="in"></feComposite></filter><path d="M0 0L200 0L200 140L0 140L0 0Z" id="b4dzyXTsLO" fill="white" fill-opacity="1" filter="url(#shadow9089247)"></path></g></g><g><g><filter id="shadow12919591" x="8.83" y="-2" width="183.33" height="98.5" filterUnits="userSpaceOnUse" primitiveUnits="userSpaceOnUse"><feFlood></feFlood><feComposite in2="SourceAlpha" operator="in"></feComposite><feGaussianBlur stdDeviation="2.24"></feGaussianBlur><feOffset dx="1" dy="1" result="afterOffset"></feOffset><feFlood flood-color="#000000" flood-opacity="0.5"></feFlood><feComposite in2="afterOffset" operator="in"></feComposite><feMorphology operator="dilate" radius="1"></feMorphology><feComposite in2="SourceAlpha" operator="out"></feComposite></filter><path d="M25.83 15C61.31 47.29 83.49 67.47 92.36 75.54C96.69 79.49 103.31 79.49 107.64 75.54C116.51 67.47 138.68 47.29 174.16 15L25.83 15Z" id="aHPS2I5XE" fill="white" fill-opacity="1" filter="url(#shadow12919591)"></path></g></g><g><g><filter id="shadow14063112" x="8.83" y="61.78" width="183.33" height="81.22" filterUnits="userSpaceOnUse" primitiveUnits="userSpaceOnUse"><feFlood></feFlood><feComposite in2="SourceAlpha" operator="in"></feComposite><feGaussianBlur stdDeviation="2.24"></feGaussianBlur><feOffset dx="1" dy="1" result="afterOffset"></feOffset><feFlood flood-color="#000000" flood-opacity="0.5"></feFlood><feComposite in2="afterOffset" operator="in"></feComposite><feMorphology operator="dilate" radius="1"></feMorphology><feComposite in2="SourceAlpha" operator="out"></feComposite></filter><path d="M25.83 125L76.6 78.78C82.63 84.25 86.39 87.66 87.9 89.03C94.77 95.25 105.23 95.26 112.11 89.03C113.61 87.67 117.38 84.26 123.4 78.81L174.16 125L25.83 125Z" id="jaZdzHjDX" fill="white" fill-opacity="1" filter="url(#shadow14063112)"></path></g></g><g><g><filter id="shadow6850854" x="-2" y="6" width="86.88" height="129" filterUnits="userSpaceOnUse" primitiveUnits="userSpaceOnUse"><feFlood></feFlood><feComposite in2="SourceAlpha" operator="in"></feComposite><feGaussianBlur stdDeviation="2.24"></feGaussianBlur><feOffset dx="1" dy="1" result="afterOffset"></feOffset><feFlood flood-color="#000000" flood-opacity="0.5"></feFlood><feComposite in2="afterOffset" operator="in"></feComposite><feMorphology operator="dilate" radius="1"></feMorphology><feComposite in2="SourceAlpha" operator="out"></feComposite></filter><path d="M15 117L15 23L66.88 70L15 117Z" id="g1c4ST29ZG" fill="white" fill-opacity="1" filter="url(#shadow6850854)"></path></g></g><g><g><filter id="shadow6076521" x="116.12" y="6" width="86.88" height="129" filterUnits="userSpaceOnUse" primitiveUnits="userSpaceOnUse"><feFlood></feFlood><feComposite in2="SourceAlpha" operator="in"></feComposite><feGaussianBlur stdDeviation="2.24"></feGaussianBlur><feOffset dx="1" dy="1" result="afterOffset"></feOffset><feFlood flood-color="#000000" flood-opacity="0.5"></feFlood><feComposite in2="afterOffset" operator="in"></feComposite><feMorphology operator="dilate" radius="1"></feMorphology><feComposite in2="SourceAlpha" operator="out"></feComposite></filter><path d="M185 117L185 23L133.12 70L185 117Z" id="pZhkGj8Jw" fill="white" fill-opacity="1" filter="url(#shadow6076521)"></path></g></g></g></g></svg>