<?xml version="1.0" encoding="UTF-8" standalone="no"?>
<!DOCTYPE svg PUBLIC "-//W3C//DTD SVG 1.1//EN" "http://www.w3.org/Graphics/SVG/1.1/DTD/svg11.dtd">
<svg version="1.1" xmlns="http://www.w3.org/2000/svg" xmlns:xlink="http://www.w3.org/1999/xlink" preserveAspectRatio="xMidYMid meet" viewBox="0 0 90 140" width="90" height="140"><defs><path d="M45.9 112C53.14 112 59 117.86 59 125.1C59 128.08 59 123.92 59 126.9C59 134.14 53.14 140 45.9 140C42.92 140 47.08 140 44.1 140C36.86 140 31 134.14 31 126.9C31 123.92 31 128.08 31 125.1C31 117.86 36.86 112 44.1 112C47.08 112 42.92 112 45.9 112Z" id="b1CooGh7cX"></path><path d="M61.08 0C61.6 0 62.02 0.44 62 0.97C61 20.57 58.22 75.53 57.27 94.42C57.14 96.98 55.02 99 52.45 99C48.56 99 51.49 99 50.1 99C40.52 99 32.62 91.49 32.14 81.93C31.31 65.54 29.02 20.25 28.03 0.56C28.01 0.26 28.25 0 28.56 0C35.26 0 54.46 0 61.08 0Z" id="dTh2Aq7j2"></path></defs><g><g><g><g><filter id="shadow3009348" x="14" y="95" width="63" height="63" filterUnits="userSpaceOnUse" primitiveUnits="userSpaceOnUse"><feFlood></feFlood><feComposite in2="SourceAlpha" operator="out"></feComposite><feGaussianBlur stdDeviation="2.24"></feGaussianBlur><feOffset dx="1" dy="1" result="afterOffset"></feOffset><feFlood flood-color="#000000" flood-opacity="0.5"></feFlood><feComposite in2="afterOffset" operator="in"></feComposite><feMorphology operator="dilate" radius="1"></feMorphology><feComposite in2="SourceAlpha" operator="in"></feComposite></filter><path d="M45.9 112C53.14 112 59 117.86 59 125.1C59 128.08 59 123.92 59 126.9C59 134.14 53.14 140 45.9 140C42.92 140 47.08 140 44.1 140C36.86 140 31 134.14 31 126.9C31 123.92 31 128.08 31 125.1C31 117.86 36.86 112 44.1 112C47.08 112 42.92 112 45.9 112Z" id="a5ua9k9QCr" fill="white" fill-opacity="1" filter="url(#shadow3009348)"></path></g></g><g><g><filter id="shadow4744382" x="11" y="-17" width="69" height="134" filterUnits="userSpaceOnUse" primitiveUnits="userSpaceOnUse"><feFlood></feFlood><feComposite in2="SourceAlpha" operator="out"></feComposite><feGaussianBlur stdDeviation="2.24"></feGaussianBlur><feOffset dx="1" dy="1" result="afterOffset"></feOffset><feFlood flood-color="#000000" flood-opacity="0.5"></feFlood><feComposite in2="afterOffset" operator="in"></feComposite><feMorphology operator="dilate" radius="1"></feMorphology><feComposite in2="SourceAlpha" operator="in"></feComposite></filter><path d="M61.08 0C61.6 0 62.02 0.44 62 0.97C61 20.57 58.22 75.53 57.27 94.42C57.14 96.98 55.02 99 52.45 99C48.56 99 51.49 99 50.1 99C40.52 99 32.62 91.49 32.14 81.93C31.31 65.54 29.02 20.25 28.03 0.56C28.01 0.26 28.25 0 28.56 0C35.26 0 54.46 0 61.08 0Z" id="c3Io4cpz2b" fill="white" fill-opacity="1" filter="url(#shadow4744382)"></path></g></g></g></g></svg>