<?xml version="1.0" encoding="UTF-8" standalone="no"?>
<!DOCTYPE svg PUBLIC "-//W3C//DTD SVG 1.1//EN" "http://www.w3.org/Graphics/SVG/1.1/DTD/svg11.dtd">
<svg version="1.1" xmlns="http://www.w3.org/2000/svg" xmlns:xlink="http://www.w3.org/1999/xlink" preserveAspectRatio="xMidYMid meet" viewBox="0 0 90 140" width="90" height="140"><defs><path d="M44.9 112C52.13 112 58 117.86 58 125.1C58 128.08 58 123.92 58 126.9C58 134.14 52.13 140 44.9 140C41.72 140 45.27 140 42.09 140C34.86 140 29 134.14 29 126.9C29 123.92 29 128.08 29 125.1C29 117.86 34.86 112 42.09 112C45.27 112 41.72 112 44.9 112Z" id="f2H3Egk4bS"></path><path d="M32.49 92.21C32.72 82.64 34.33 76.01 37.33 72.34C42.97 65.61 48.15 63.19 56.18 53.69C62.49 45.98 63.34 41.29 63.35 37.19C63.06 34.54 63.84 21.15 44.75 21.45C33.72 22 27.74 27.02 26.82 36.52C26.8 36.76 26.78 37.44 26.76 38.58C26.75 39.38 26.1 40.01 25.3 40.01C20.25 40.01 6.5 40.01 1.45 40.01C0.65 40.01 0.01 39.37 0 38.58C0 38.32 0 37.86 0.02 37.19C0.12 31.59 1.63 12.31 23.36 3.64C33.03 -0.21 44.28 -0.03 47.72 0.01C49.88 0.04 57.97 0.8 61.98 1.88C65.99 2.95 90.13 7.78 90 37.01C89.95 48.55 83.96 56.46 80.31 61C76.67 65.53 67.83 73.02 63.25 77.42C59 81.05 56.68 85.91 56.28 92C56.19 93.33 56.2 95.52 56.31 98.57C56.34 99.35 55.72 100 54.93 100C50.45 100 38.41 100 33.92 100C33.13 100 32.48 99.36 32.48 98.57C32.45 95.6 32.46 93.48 32.49 92.21Z" id="e26yEKHEp0"></path></defs><g><g><g><g><g><filter id="shadow5661238" x="12" y="95" width="64" height="63" filterUnits="userSpaceOnUse" primitiveUnits="userSpaceOnUse"><feFlood></feFlood><feComposite in2="SourceAlpha" operator="out"></feComposite><feGaussianBlur stdDeviation="2.24"></feGaussianBlur><feOffset dx="1" dy="1" result="afterOffset"></feOffset><feFlood flood-color="#000000" flood-opacity="0.5"></feFlood><feComposite in2="afterOffset" operator="in"></feComposite><feMorphology operator="dilate" radius="1"></feMorphology><feComposite in2="SourceAlpha" operator="in"></feComposite></filter><path d="M44.9 112C52.13 112 58 117.86 58 125.1C58 128.08 58 123.92 58 126.9C58 134.14 52.13 140 44.9 140C41.72 140 45.27 140 42.09 140C34.86 140 29 134.14 29 126.9C29 123.92 29 128.08 29 125.1C29 117.86 34.86 112 42.09 112C45.27 112 41.72 112 44.9 112Z" id="btLqi5Zpx" fill="white" fill-opacity="1" filter="url(#shadow5661238)"></path></g></g><g><g><filter id="shadow16443085" x="-17" y="-17" width="125" height="135" filterUnits="userSpaceOnUse" primitiveUnits="userSpaceOnUse"><feFlood></feFlood><feComposite in2="SourceAlpha" operator="out"></feComposite><feGaussianBlur stdDeviation="2.24"></feGaussianBlur><feOffset dx="1" dy="1" result="afterOffset"></feOffset><feFlood flood-color="#000000" flood-opacity="0.5"></feFlood><feComposite in2="afterOffset" operator="in"></feComposite><feMorphology operator="dilate" radius="1"></feMorphology><feComposite in2="SourceAlpha" operator="in"></feComposite></filter><path d="M32.49 92.21C32.72 82.64 34.33 76.01 37.33 72.34C42.97 65.61 48.15 63.19 56.18 53.69C62.49 45.98 63.34 41.29 63.35 37.19C63.06 34.54 63.84 21.15 44.75 21.45C33.72 22 27.74 27.02 26.82 36.52C26.8 36.76 26.78 37.44 26.76 38.58C26.75 39.38 26.1 40.01 25.3 40.01C20.25 40.01 6.5 40.01 1.45 40.01C0.65 40.01 0.01 39.37 0 38.58C0 38.32 0 37.86 0.02 37.19C0.12 31.59 1.63 12.31 23.36 3.64C33.03 -0.21 44.28 -0.03 47.72 0.01C49.88 0.04 57.97 0.8 61.98 1.88C65.99 2.95 90.13 7.78 90 37.01C89.95 48.55 83.96 56.46 80.31 61C76.67 65.53 67.83 73.02 63.25 77.42C59 81.05 56.68 85.91 56.28 92C56.19 93.33 56.2 95.52 56.31 98.57C56.34 99.35 55.72 100 54.93 100C50.45 100 38.41 100 33.92 100C33.13 100 32.48 99.36 32.48 98.57C32.45 95.6 32.46 93.48 32.49 92.21Z" id="bGVDLe7JJ" fill="white" fill-opacity="1" filter="url(#shadow16443085)"></path></g></g></g></g></g></svg>